<svg xmlns="http://www.w3.org/2000/svg" viewBox="0 0 267.91 167.94"><defs><style>.cls-1{fill:#1d1d1b;}.cls-2{fill:#fff;}.cls-3{fill:none;stroke:#1d1d1b;stroke-miterlimit:10;}</style></defs><title>eye_2</title><g id="Calque_2" data-name="Calque 2"><g id="Calque_1-2" data-name="Calque 1"><path class="cls-1" d="M134,150.72a130.45,130.45,0,0,1-38.36-5.88A71.81,71.81,0,0,1,95.89,23a127.9,127.9,0,0,1,75.38-.24,71.81,71.81,0,0,1,.27,122.32A130.25,130.25,0,0,1,134,150.72ZM195.32,84a61.56,61.56,0,1,0-61.56,61.56A61.61,61.61,0,0,0,195.32,84Z"/><path class="cls-2" d="M171.27,22.76C204,32.56,232.94,54.68,249.65,84c-16.75,29.25-45.6,51.28-78.11,61.1a71.81,71.81,0,0,0-.27-122.32Z"/><path class="cls-1" d="M267.12,85.87a6.61,6.61,0,0,1-.17,1.07c0,.14-.18.21-.22.35a5.24,5.24,0,0,1-.17.62c-24.24,46.35-77,79.53-132.58,79.53S25.6,134.22,1.36,87.85a4.34,4.34,0,0,1-.16-.62C1.13,87.09,1,87,1,86.88A6.44,6.44,0,0,1,.8,85.81a8.1,8.1,0,0,1-.3-1.88,7.77,7.77,0,0,1,.3-1.85A6.4,6.4,0,0,1,1,81c0-.15.16-.21.23-.34A3.5,3.5,0,0,1,1.36,80C25.61,33.68,78.33.5,134,.5S242.32,33.73,266.56,80.1a3.49,3.49,0,0,1,.17.62c0,.12.18.19.22.34a6.24,6.24,0,0,1,.17,1.08,7.83,7.83,0,0,1,.29,1.85A8.16,8.16,0,0,1,267.12,85.87ZM249.65,84c-16.71-29.3-45.7-51.42-78.38-61.22A71.79,71.79,0,0,0,95.89,23c-32.32,9.88-61,31.83-77.62,60.93,16.53,29,45.07,50.95,77.33,60.91a71.87,71.87,0,0,0,75.94.24C204.05,135.26,232.9,113.23,249.65,84Z"/><path class="cls-2" d="M95.89,23a71.81,71.81,0,0,0-.29,121.84c-32.26-10-60.8-31.91-77.33-60.91C34.92,54.83,63.57,32.88,95.89,23Z"/><path class="cls-1" d="M171.27,22.76A127.9,127.9,0,0,0,95.89,23a71.79,71.79,0,0,1,75.38-.24Z"/><path class="cls-1" d="M95.6,144.84a128,128,0,0,0,75.94.24,71.87,71.87,0,0,1-75.94-.24Z"/><path class="cls-1" d="M103.24,84A5.13,5.13,0,1,1,93,84a41,41,0,0,1,41-41H134a5.12,5.12,0,0,1,0,10.24v0A30.79,30.79,0,0,0,103.24,84Z"/><path class="cls-3" d="M134,43H134A41,41,0,0,0,93,84a5.13,5.13,0,1,0,10.26,0A30.79,30.79,0,0,1,134,53.22v0A5.12,5.12,0,0,0,134,43Z"/><path class="cls-3" d="M133.76,145.55A61.55,61.55,0,1,1,195.32,84,61.63,61.63,0,0,1,133.76,145.55Z"/><path class="cls-3" d="M171.27,22.76A71.81,71.81,0,1,0,205.58,84,71.46,71.46,0,0,0,171.27,22.76Z"/><path class="cls-3" d="M171.54,145.08a128,128,0,0,1-75.94-.24c-32.26-10-60.8-31.91-77.33-60.91C34.92,54.83,63.57,32.88,95.89,23a127.9,127.9,0,0,1,75.38-.24C204,32.56,232.94,54.68,249.65,84,232.9,113.23,204.05,135.26,171.54,145.08Z"/><path class="cls-3" d="M267.12,82.14a6.24,6.24,0,0,0-.17-1.08c0-.15-.18-.22-.22-.34a3.49,3.49,0,0,0-.17-.62C242.32,33.73,189.59.5,134,.5S25.61,33.68,1.36,80a3.5,3.5,0,0,0-.16.62c-.07.13-.19.19-.23.34A6.4,6.4,0,0,0,.8,82.08a7.77,7.77,0,0,0-.3,1.85,8.1,8.1,0,0,0,.3,1.88A6.44,6.44,0,0,0,1,86.88c0,.14.16.21.23.35a4.34,4.34,0,0,0,.16.62c24.24,46.37,77,79.59,132.62,79.59s108.34-33.18,132.58-79.53a5.24,5.24,0,0,0,.17-.62c0-.14.18-.21.22-.35a6.61,6.61,0,0,0,.17-1.07,8.16,8.16,0,0,0,.29-1.88A7.83,7.83,0,0,0,267.12,82.14Z"/></g></g></svg>